PathFileType	4	(X/Y/Z)	/Users/niels/Desktop/University/Third Semester/Perception and Action/Exam/Gymnastics Motion Tracking/Code for Gym Tracking/Analyzed Data/Start Salto/stsalto_bad_id14_1_Sports2D/stsalto_bad_id14_1_Sports2D_px_person00.trc
DataRate	CameraRate	NumFrames	NumMarkers	Units	OrigDataRate	OrigDataStartFrame	OrigNumFrames
29.83695652173913	29.83695652173913	12	22	m	29.83695652173913	115	184
Frame#	Time	Hip			RHip			RKnee			RAnkle			RBigToe			RSmallToe			RHeel			LHip			LKnee			LAnkle			LBigToe			LSmallToe			LHeel			Neck			Head			Nose			RShoulder			RElbow			RWrist			LShoulder			LElbow			LWrist		
		X1	Y1	Z1	X2	Y2	Z2	X3	Y3	Z3	X4	Y4	Z4	X5	Y5	Z5	X6	Y6	Z6	X7	Y7	Z7	X8	Y8	Z8	X9	Y9	Z9	X10	Y10	Z10	X11	Y11	Z11	X12	Y12	Z12	X13	Y13	Z13	X14	Y14	Z14	X15	Y15	Z15	X16	Y16	Z16	X17	Y17	Z17	X18	Y18	Z18	X19	Y19	Z19	X20	Y20	Z20	X21	Y21	Z21	X22	Y22	Z22
115	3.8542805100182154	1.2402528795654169	-0.43510059505354964	0.0	1.2504620950837362	-0.4393627184996291	0.0	1.3831713285522604	-0.46955970525434326	0.0	1.484253182009037	-0.5590703723884364	0.0	1.5512544519003755	-0.5442908420052416	0.0	1.5467207753918981	-0.5609883599608463	0.0	1.488958719211488	-0.5782441938929929	0.0	1.2502743672995897	-0.4346922009599821	0.0	1.3773204949117686	-0.4723203348684012	0.0	1.4649031269002597	-0.561088036767432	0.0	1.532488495101455	-0.5583963559445634	0.0	1.5191777561573643	-0.5583440097173074	0.0	1.4693423120201334	-0.5804030483641965	0.0	1.0860281369241975	-0.3601234717138154	0.0	1.0492882089615763	-0.30034755069367786	0.0	1.0914227530468539	-0.3160217337590321	0.0	1.0910415396148043	-0.3822908863997581	0.0	1.0468605775666606	-0.43786209726676784	0.0	1.0655589122858966	-0.3748398817237835	0.0	1.1034643338418506	-0.36982772174431017	0.0	1.1131686607542122	-0.4208743013153147	0.0	1.1003202084087007	-0.3629224594462552	0.0
116	3.8877959927140258	1.2511464998370607	-0.44113462975632795	0.0	1.2607389496581527	-0.4455833212138962	0.0	1.3912612522575232	-0.4853955300476779	0.0	1.4861506920074665	-0.5788406488993023	0.0	1.5535022611896152	-0.5685353608146024	0.0	1.547869138542116	-0.5843679198606112	0.0	1.4899113970631066	-0.5977207683051061	0.0	1.2615087217783771	-0.4408209032133492	0.0	1.3856775952341593	-0.4882877563416391	0.0	1.4704028628207633	-0.5791382176270189	0.0	1.54068891858802	-0.5783053493027203	0.0	1.5292997507526336	-0.5765846746357253	0.0	1.4743648655084651	-0.5982485750824011	0.0	1.0977155801624874	-0.36346849571539674	0.0	1.0632090831841405	-0.3043928128051048	0.0	1.1031896058017288	-0.3211828978025743	0.0	1.1020256030594753	-0.38603684558319157	0.0	1.0597829700736678	-0.43842709131572766	0.0	1.0842994948737734	-0.3794661528539375	0.0	1.1140203892316494	-0.374009542791755	0.0	1.1216873202598443	-0.42659703034444946	0.0	1.1216750949404963	-0.38294327624775754	0.0
117	3.9213114754098366	1.2617309997850532	-0.44797516961080447	0.0	1.27057686572434	-0.4523943144110525	0.0	1.3992021594056065	-0.501125057994648	0.0	1.4872571786698308	-0.5988662645333191	0.0	1.5544933946113553	-0.5926515958489622	0.0	1.5478077340031071	-0.6077061952536188	0.0	1.4903065558125512	-0.6176242674188442	0.0	1.2719484507784866	-0.44796179428436644	0.0	1.3938490404115447	-0.5038027878355203	0.0	1.474984017381498	-0.5975628189132515	0.0	1.5457091109965548	-0.5996150904486085	0.0	1.5359173553698644	-0.5967361874378011	0.0	1.4781313779712748	-0.6167061589711533	0.0	1.109899895741029	-0.367288004277373	0.0	1.07777439425775	-0.308731869128404	0.0	1.1160821101481013	-0.3266225461206794	0.0	1.1139407412808942	-0.3894442754578791	0.0	1.0744960909662071	-0.4378512888519721	0.0	1.1060195404677358	-0.38426130386615515	0.0	1.1238438923508782	-0.3785212536062901	0.0	1.1258688817706537	-0.4321188226419603	0.0	1.1375327156270085	-0.4055145698254685	0.0
118	3.954826958105647	1.2717594151404645	-0.45557129806245983	0.0	1.2798996155436213	-0.45955027555419137	0.0	1.4069308336964044	-0.5164789985694901	0.0	1.4880463282617686	-0.6191543404110246	0.0	1.5546112216800985	-0.6164766202002062	0.0	1.5471581082953885	-0.6308109500412837	0.0	1.490645680567173	-0.6379615959679438	0.0	1.2813186165155874	-0.45609144517899586	0.0	1.4015888699763708	-0.5188119052396906	0.0	1.478573169053731	-0.6163303803669283	0.0	1.5479132699169957	-0.6219629685314446	0.0	1.5391977635809655	-0.6187544770950959	0.0	1.4808105464723385	-0.6358393826620908	0.0	1.122318550699845	-0.37123093083731645	0.0	1.0926933410697048	-0.3125871132206115	0.0	1.1303069774692973	-0.33170083495865205	0.0	1.1264084569022959	-0.3920978756062655	0.0	1.0896230708867751	-0.43759051851451347	0.0	1.1293494927333048	-0.3903097130247032	0.0	1.1327741688930149	-0.38310714664209533	0.0	1.1247881367250034	-0.4388014974793601	0.0	1.1464460642483654	-0.42721727121514985	0.0
119	3.9883424408014574	1.2811825427441117	-0.46377376872624815	0.0	1.2887478016140983	-0.46688667212452545	0.0	1.4143276929204631	-0.5311537401053839	0.0	1.48887791271842	-0.639272180253291	0.0	1.5542059854770367	-0.6397771168424717	0.0	1.546441053473635	-0.6532704072881297	0.0	1.4911876902122378	-0.6582875162912123	0.0	1.2896675952419363	-0.46519291829813303	0.0	1.4086496446132006	-0.5333010341177228	0.0	1.4811007886881962	-0.6351516769599367	0.0	1.5480060485241114	-0.6445367396893629	0.0	1.5398597550179816	-0.6419134867176648	0.0	1.4824366880605846	-0.6552847419522158	0.0	1.134710585298168	-0.37507013469105	0.0	1.1073769276156267	-0.3159713906901733	0.0	1.1453930622032298	-0.3362876475590643	0.0	1.139087310996863	-0.3938677976349627	0.0	1.1044267451265788	-0.43866836638402185	0.0	1.1527325294034634	-0.39802820445315834	0.0	1.1410386795915428	-0.3877373553655608	0.0	1.1202372868369734	-0.4467950216087254	0.0	1.1505414199303088	-0.44528419154689897	0.0
120	4.021857923497268	1.290279389290471	-0.47242600946271635	0.0	1.2972757425389114	-0.47452716903034037	0.0	1.4213112899639309	-0.5451240262161386	0.0	1.489902813275011	-0.6587607188390627	0.0	1.5535880353841605	-0.6626418076437788	0.0	1.545922898138363	-0.6749993439400909	0.0	1.491803442505878	-0.6781079866698058	0.0	1.297396129397948	-0.475148328362197	0.0	1.415033188766069	-0.5473120183841973	0.0	1.4826968657965762	-0.6537119676892037	0.0	1.5469230065568171	-0.6665682129776571	0.0	1.53901213815678	-0.6651106321750646	0.0	1.4830232438468094	-0.6744921023029445	0.0	1.1471734430807237	-0.3787607853351067	0.0	1.1213596216710202	-0.31936290789345684	0.0	1.160596444577937	-0.3404939383536689	0.0	1.151943400742121	-0.39495163859743193	0.0	1.1189910546496893	-0.44142134181341663	0.0	1.1752172975068877	-0.4079254211100504	0.0	1.1494916564704478	-0.39239737918178264	0.0	1.1161002888716895	-0.4550669529325237	0.0	1.1541219597753816	-0.45835410442340535	0.0
121	4.055373406193079	1.2995390572013727	-0.48149231968515116	0.0	1.3056591804414863	-0.4828363826751201	0.0	1.4279051041101356	-0.5587352949522906	0.0	1.4911148463010702	-0.6775097800526175	0.0	1.5530102515673219	-0.6854254929695278	0.0	1.5456130365965686	-0.6963383215186686	0.0	1.4922106852006594	-0.6972145397468086	0.0	1.305083174966685	-0.4856722852771201	0.0	1.4210149216913548	-0.5609990212950624	0.0	1.483657798345526	-0.6718865528548317	0.0	1.5454613753304667	-0.6877431362441595	0.0	1.5376113402313494	-0.687451268529154	0.0	1.4826654977661164	-0.6931036997957167	0.0	1.1601611102227463	-0.38240858575360853	0.0	1.1346880229731495	-0.3230045279633626	0.0	1.1755480074507343	-0.34433845827148146	0.0	1.1651398237866208	-0.39576588327896417	0.0	1.1336746626848415	-0.4457009777964342	0.0	1.1969325413653429	-0.4207735514986816	0.0	1.1592956552137919	-0.3969048832826925	0.0	1.1159440769523257	-0.46217976987370557	0.0	1.1605176230487966	-0.466157720914164	0.0
122	4.0888888888888895	1.3093040741798283	-0.49101561622474743	0.0	1.3140984568603646	-0.4921069772507411	0.0	1.4341948052699978	-0.5724447031281003	0.0	1.4924018962765007	-0.69557110269931	0.0	1.5525275763377617	-0.708148237188894	0.0	1.5453209829479262	-0.7174651817127691	0.0	1.4922603650317312	-0.7155380982839448	0.0	1.3132402643674268	-0.49642730458004575	0.0	1.4268768437172517	-0.5746317050236003	0.0	1.4842337231993674	-0.6895903842532362	0.0	1.5439834726652164	-0.708008943061399	0.0	1.5359528967660085	-0.7084549351795808	0.0	1.4815716002075825	-0.7109903543517926	0.0	1.174063210518749	-0.38625411784577307	0.0	1.1480131793472812	-0.32686097522839647	0.0	1.1902858435615675	-0.34791177510261656	0.0	1.1787860285928764	-0.39684791847227036	0.0	1.1487775046806719	-0.45104367453923105	0.0	1.2183512619999817	-0.43624582347671076	0.0	1.1711584309177037	-0.401168629759618	0.0	1.121254441547074	-0.46722396441047787	0.0	1.1700144311270442	-0.46959773980996883	0.0
123	4.1224043715847	1.3194793003950192	-0.5009637147571285	0.0	1.3227226696734022	-0.5022566392931299	0.0	1.4402306276256038	-0.5864546027233489	0.0	1.4936166353302727	-0.7127662362659528	0.0	1.5520158311341008	-0.7300483384136279	0.0	1.5448447777819527	-0.7378637585076808	0.0	1.492015738428119	-0.7328470775755334	0.0	1.3219914719763872	-0.5071362838868445	0.0	1.432652910872042	-0.5884113133038669	0.0	1.4845386462664243	-0.706524461568857	0.0	1.542488135644686	-0.7270923527355866	0.0	1.5337463869434997	-0.7277799019505343	0.0	1.480035472834722	-0.7279739585524714	0.0	1.188786673390602	-0.39055050312107176	0.0	1.1621310493449848	-0.3308180272424532	0.0	1.2048909557961118	-0.3514399526036095	0.0	1.1927624346759131	-0.39868674522450065	0.0	1.1643969724154613	-0.4568458257908661	0.0	1.239159639288386	-0.45252019233873136	0.0	1.1848014865206167	-0.4053438778196674	0.0	1.1313811797139333	-0.47021662739600323	0.0	1.1803472783498847	-0.47079362101766226	0.0
124	4.15591985428051	1.329625703744255	-0.5112366815057081	0.0	1.3315062012409558	-0.5128773263987775	0.0	1.44604378824784	-0.6006476060373456	0.0	1.4946951297055489	-0.7287999215118797	0.0	1.5513998163566958	-0.7499137451895563	0.0	1.5442173098738208	-0.7565401886457195	0.0	1.4917096647557198	-0.7488748276234816	0.0	1.3309780826238635	-0.5176995124921077	0.0	1.4381575186253812	-0.6023816095670113	0.0	1.4846664544994177	-0.7223540247698655	0.0	1.5409023365588246	-0.7444751529158027	0.0	1.5307353382141735	-0.7451170925390659	0.0	1.478419121156487	-0.7438283318787207	0.0	1.2038147112959052	-0.3954108734017575	0.0	1.177358474439125	-0.3348199298628652	0.0	1.21937356037793	-0.3550880795810218	0.0	1.206840186024132	-0.4015619570396827	0.0	1.1803778804864473	-0.4626628166472749	0.0	1.2582585658461778	-0.4677829412753744	0.0	1.199249140237341	-0.40972325837559487	0.0	1.1446471389283936	-0.4719257857509909	0.0	1.1892570572885808	-0.4722112971776517	0.0
125	4.189435336976321	1.3392904172580595	-0.5218084715539998	0.0	1.3403478315600625	-0.5235551681422648	0.0	1.4517401601928637	-0.6147970428958701	0.0	1.495661860936716	-0.7435829308781802	0.0	1.550727281408069	-0.7667452588395354	0.0	1.5436648217332927	-0.7726097385885543	0.0	1.4915966669406733	-0.7635680955698421	0.0	1.3396629695637134	-0.5282530270270802	0.0	1.4432170486644138	-0.6165209303335099	0.0	1.4848129711228086	-0.7370323577830287	0.0	1.5393367473182153	-0.7597188448313228	0.0	1.5272282212919523	-0.7602989606406694	0.0	1.4771427701424371	-0.7584968637529304	0.0	1.2185837014102934	-0.40079747451816367	0.0	1.1934132069389347	-0.338949628728029	0.0	1.2337208125220467	-0.3589157017874794	0.0	1.220957087241143	-0.4055591058949735	0.0	1.1965103773135164	-0.46843288400803934	0.0	1.274794522194049	-0.4813355347465044	0.0	1.2134905771335731	-0.41462764442731	0.0	1.1595219852632945	-0.4734934787029163	0.0	1.1964713193392187	-0.4756361784910073	0.0
126	4.222950819672132	1.3482841915452448	-0.5327874068117205	0.0	1.3491650729072924	-0.5341264394764021	0.0	1.457539022940669	-0.6287453239730806	0.0	1.496496899897358	-0.7572565419601396	0.0	1.54993550233623	-0.7802462913887163	0.0	1.5432332181017225	-0.7857743178629193	0.0	1.4917026012954546	-0.7770335921088316	0.0	1.3477245157490598	-0.5390449810644964	0.0	1.4479158066155104	-0.630764364036615	0.0	1.4852272257226935	-0.7507883382036638	0.0	1.5381120461587223	-0.7727572565565806	0.0	1.523963112162814	-0.7734045480571646	0.0	1.4765567253938952	-0.7720975507613351	0.0	1.2328526911793625	-0.40664824750952533	0.0	1.2098927493458103	-0.3432460361482619	0.0	1.2479902117636397	-0.3629453755258002	0.0	1.2353348643886002	-0.4106979219185488	0.0	1.2128587217039577	-0.4744623976913841	0.0	1.289052581651218	-0.49345060161726095	0.0	1.2268752825221456	-0.42039367119950355	0.0	1.1750368569985912	-0.47621176442474367	0.0	1.203018558041576	-0.4822178408008971	0.0
